# xmcd
#
# Track frame offsets:
#  150
#  55345
#  85522
#  123947
#  139558
#  176611
#  226451
#  247700
#  290490
#
# Disc length: 4409 seconds
#
# Revision: 0
# Processed by: cddbd v1.5.1PL0 Copyright (c) Steve Scherf et al.
# Submitted via: AltoMP3_Maker 3.0
#
DISCID=6e113709
DTITLE=The Kansas City Sound - A Tribute to The Duke
DYEAR=1900
DGENRE=
TTITLE0=Jeep's Slow Blues
TTITLE1=Caravan
TTITLE2=It Don't Mean A Thing...
TTITLE3=Mood Indigo
TTITLE4=Take The A Train
TTITLE5=The Jeep Is Jumpin'
TTITLE6=Prelude To A Kiss
TTITLE7=Limbo Jazz
TTITLE8=Cottontail
EXTD=
EXTT0=
EXTT1=
EXTT2=
EXTT3=
EXTT4=
EXTT5=
EXTT6=
EXTT7=
EXTT8=
PLAYORDER=
